t123r2o3d32d32d32r32d16d16d96r12r32d16d16
a32r32a16a+16r16d16f+16a+16r16c16f+16a+16r16f+32r32f+16a+16r16
c16f+16a+16r16d16f+16a+16r16c16f+16a+16a16f+32r32a16a+16r16
c16f+16a+16a16d16f+16a+16r16c16f+16a+16r16f+32r32f+16a+16r16
c16f+16a+16r16d16f+16a+16r16c16f+16a+16r16f+32r32f+16a+16e16
t127c16f+16a+16r16d16f+16a+16r16c16f+16a+16r16f+32r32f+16a+16r16
c16f+16a+16r16d16f+16a+16r16c16f+16a+16r16f+32r32f+16a+16r16
c16f+16a+16r16d16f+16a+16r16c16f+16a+16r16f+32r32f+16a+16r16
c16f+16a+16r16d16f+16a+16r16c16f+16a+16r16f+32r32f+16a+16r16
c16f+16a+16r16d16f+16a+16r16c16f+16a+16r16f+32r32f+16a+16r16
c16f+16a+16r16d16f+16a+16r16c16f+16a+16r16f+32r32f+16a+16r16
c16f+16a+16r16d16f+16a+16r16c16f+16a+16r16f+32r32f+16a+16r16
c16f+16a+16r16d16f+16a+16r16c16f+16a+16r16f+32r32f+16a+16r16
c16f+16a+16r16d16f+16a+16r16c16f+16a+16r16f+32r32f+16a+16r16
c16f+16a+16r16d16f+16a+16r16c16f+16a+16r16f+32r32f+16a+16r16
t128c16f+16a+16r16d16f+16a+16r16c16f+16a+16r16f+32r32f+16a+16r16
c16f+16a+16r16d16f+16a+16r16c16f+16a+16a16f+32r32f+16d32r32d16
c16f+16a+16r16d16f+16a+16r16c16f+16a+16r16f+32r32f+16a+16r16
c16f+16a+16r16d16f+16a+16r16c16f+16a+16r16f+32r32f+16a+16r16
t129c16f+16a+16r16d16f+16a+16r16c16f+16a+16r16d32d96r48d32d96r12d16
c16f+16a+16a16d16f+16a+16r16c16f+16a+16r16d16d16a+16d16
c16f+16a+16r16d16f+16a+16r16c16f+16a+16r16f+32r32f+16a+16r16
c16f+16a+16r16d16f+16a+16r16c16f+16a+16r16f+32r32f+16a+16r16
t129c16f+16a+16r16d16f+16a+16r16c16f+16a+16r16f+32r32f+16a+16r16
c16f+16a+16r16d16f+16a+16r16c16f+16a+16r16f+32r32f+16a+16r16
c16f+16a+16r16d16f+16a+16r16c16f+16a+16r16f+32r32f+16a+16r16
c16f+16a+16r16d16f+16a+16r16c16f+16a+16d16f+32r32f+16a+16r16
c16f+16a+16r16d16f+16a+16r16c16f+16a+16r16f+32r32f+16a+16r16
c16f+16a+16r16d16f+16a+16r16c16f+16a+16r16f+32r32f+16a+16r16
c16f+16a+16r16d16f+16a+16r16c16f+16a+16r16f+32r32f+16a+16r16
c16f+16a+16r16d16f+16a+16r16c16f+16a+16r16f+32r32f+16a+16r16
c16f+16a+16r16d16f+16a+16r16c16f+16a+16r16f+32r32f+16a+16r16
c16f+16a+16r16d16f+16a+16r16c16f+16a+16r16f+32r32f+16a+16r16
t126c16f+16a+16r16d16f+16a+16r16c16f+16a+16r16f+32r32f+16a+16r16
c16f+16a+16r16d16f+16a+16r16c16f+16a+16r16f+32r32f+16a+16r16
t128a16f+16a+16a16d16a16a+16r16a16f+16a+16a16d16f+16a+16r16
c16f+16a16a16d16a16a+16r16a16f+16a16r16f+32r32f+16a+16a16
t126c16f+16a+16r16d16f+16a+16r16c16f+16a+16r16f+32r32f+16a+16r16
c16f+16a+16r16d16f+16a+16r16c16f+16a+16r16f+32r32f+16a+16r16
c16f+16a+16r16d16f+16a+16r16c16f+16a+16r16f+32r32f+16a+16r16
c16f+16a+16r16d16f+16a+16r16c16f+16a+16r16f+32r32f+16a+16r16
t124c16f+16a+16r16d16f+16a+16r16c16f+16a+16r16f+32r32f+16a+16r16
c16f+16a+16r16d16f+16a+16r16c16f+16a+16r16f+32r32f+16a+16r16
c16f+16a+16r16d16f+16a+16r16c16f+16a+16r16f+32r32f+16a+16r16
c16f+16a+16r16d16f+16a+16r24e48c16f+16a+16r16d16r16a32d32d32d32
c16f+16a+16r16d16f+16a+16r16c16f+16a+16r16f+32r32f+16a+16r16
c16f+16a+16r16d16f+16a+16r16c16f+16a+16r16f+32r32f+16a+16r16
t125c16f+16a+16r16d16f+16a+16r16c16f+16a+16r16f+32r32f+16a+16r16
c16f+16a+16r16d16f+16a+16r16c16f+16a+16r32.d64f+32r32f+16a+16r16
t128c16f+16a+16r16d16f+16a+16r16c16f+16a+16r16f+32r32f+16a+8
a16f+16a+16a16d16a16a+16r16a16f+16a+16a16>c+16<f+16a+16r16
t126c16f+16a+16r16d16f+16a+16r16c16f+16a+16r16f+32r32f+16a+16r16
c16f+16a+16r16d16f+16a+16r16c16f+16a+16r16e16r16.e32e32e32
t128c16f+16a12r24d16a16a+16r16c16f+16a+16r16f+32r32f+16a+16r16
c16f+16a+16r16d16f+16a+16r16c16f+16a+16r16f+32r32f+16a+16r16
c16f+16a+16r16d16f+16a+16r16c16f+16a+16r16f+32r32f+16a+16r16
c16f+16a+16r16d16f+16a+16r16c16f+16e12r24f+32r32a16a+16r16
c16f+16a+16r16d16f+16a+16r16c16f+16a+16r16f+32r32f+16a+16r16
c16f+16a+16r16d16f+16a+16r16c16f+16a+16a16f+32r32a16a+16r16
c16f+16a+16a16d16f+16a+16r16c16f+16a+16r16f+32r32f+16a+16r16
c16f+16a+16r16d16f+16a+16r16c24d192r48r64d24d16d16f+32r32f+16a+16r16
c16f+16a+16r16d16f+16a+16r16c16f+16a+16r16f+32r32f+16a+16r16
c16f+16a+16r16d16f+16a+16r16c16f+16a+16r16f+32r32f+16a+16r16
t129c16f+16a+16r16d16f+16a+16r16c16f+16a+16r16f+32r32f+16a+16r16
c16f+16a+16r16f+32r32e16a+16e16c16e16a+16e16f+32r32e16a+16e16
t128c16f+16a+16a192r24r64f+32r32f+16a+16r16c16f+16a+16r16f+32r32f+16a+16r16
c16f+16a+16r16d16f+16a+16r16c16f+16a+16r16f+32r32f+16a+16r16
c16f+16a+16r16d16f+16a+16r16c16f+16a+16r16f+32r32f+16a+16r16
c16f+16a+16r16d16f+16a+16r16c16f+16a+16r16f+32r32f+16a+16r16
c16f+16a+16r16d16f+16a+16r16c16f+16a+16r16f+32r32f+16a+16r16
t129c16f+16a+16r16d16f+16a+16r16c16f+16a+16r16f+32r32f+16a+16r16
c16f+16a+16r16d16f+16a+16r16c16f+16a+16r16f+32r32f+16a+16r16
c16f+16a+16r16d16f+16a+16r16c16f+16a+16r16f+32r32f+16a+16r16
c16f+16a+16r16d16f+16a+16r16c16f+16a+16r16f+32r32f+16a+16r16
c16f+16a+16r16d16f+16a+16r16c16f+16a+16r16f+32r32f+16a+16r16
c16f+16a+16r16d16f+16a+16r16c16f+16a+16r16f+32r32f+16a+16r16
d16f+16a+32.d64e16d16f+16a+16r16c16f+16e16r16e16f+16e16r16
c16f+16a+16r16d16f+16a+16r16c16f+16a+16r16f+32r32f+16a+16r16
c16f+16a+16r16d16f+16a+16r16c16f+16a+16a16f+32r32f+16a+16r16
c16f+16a+16r16d16f+16a+16r16c16f+16a+16r16f+32r32f+16a+16r16
c16f+16a+16r16d16f+16a+16r16c16f+16a+16r16f+32r32f+16a+16r16
c16f+16a+16r16d16f+16a+16r16c16f+16a+16r16f+32r32f+16a+16r16
c16f+16a+16r16d16f+16a+16r16c16f+16a+16r16f+32r32f+16a+16r16
c16f+16a+16r16d16f+16a+16r16c16f+16a+16r16f+32r32f+16a+16r16
c16f+16a+16r16d16f+16a+16r16d16d16d32r32d16d16d16d96r24r96f16
d16d16a+16d16d16f+16a+16r16c16f+16f16r16f+32r32f16a+16r16
f16f+16a+16r16d16f+16a+16r16c16f+16a+16r16f+32r32f+16a+16r16
c16f+16a+16r16d16f+16a+16r16c16f+16a+16r16f+32r32f+16a+16r16
c16f+16a+16r16d16f+16a+16r16f+32r32f+16a+16r16e16e16r1
r8
;
r1
o5a8g8a8g3r24a8g8
f+8e8f+8e4.r4
>d8c8d8c3r24d8c8
<b8a8b8a3r1
r1
r1
r1
r1
r1
r1
r1
r1
r1
r1
r1
r1
r1
r1
r1
r1
r1
r1
r1
r1
r1
r1
r1
r1
r1
r1
r1
r1
r1
r1
r1
r6
r8
a8g8a8g3r24a8g8
f+8e8f+8e4.r4
>d8c8d8c3r24d8c8
<b8a8b16a4.r4r16
a8g8a8g3r24a8g8
f+8e8f+8e4..r8.
>d8c8d8c3r24d8c8
<b8a8b8a8g+8f+8g+8f+8
r1
r1
r1
r1
r1
r1
r1
r1
r1
r1
r1
r1
r1
r1
r1
r1
r1
r1
r1
r1
r1
r1
r1
r1
r1
r1
r1
r1
r1
r1
r1
r1
r1
r1
r1
r1
r1
r1
r1
r1
r1
r1
>c+8<b8>c+8<b2^b6
r1...
r12
;
r1
o5d+16r16d16d+12r24d16d+32r32d+16d12r24d+64^d+96r48r64d16d16r16d+16d16
r16d8d+12r24d16d+16d+16d12r24d+32r32d+16d12r24d+16d16
d+16r16d16d+12r24d16d+32r32d+16d12r24d+64^d+96r48r64d16d16r16d+16d16
r16d8d+12r24d16d+16d+16d12r24d+32r32d+16d12r24d+16d16
d+16r16d16d+12r24d16d+32r32d+16d12r24d+64^d+96r48r64d16d16r16d+16d16
r16d8d+12r24d16d+16d+16d12r24d+32r32d+16d12r24d+16d16
d+16r16d16d+12r24d16d+32r32d+16d12r24d+64^d+96r48r64d16d16r16d+16d16
r16d8d+12r24d16d+16d+16d12r24d+32r32d+16d12r24d+16d16
d+16r16d16d+12r24d16d+32r32d+16d12r24d+64^d+96r48r64d16d16r16d+16d16
r16d8d+12r24d16d+16d+16d12r24d+32r32d+16d12r24d+16d16
d+16r16d16d+12r24d16d+32r32d+16d12r24d+64^d+96r48r64d16d16r16d+16d16
r16d8d+12r24d16d+16d+16d12r24d+32r32d+16d12r24d+16d16
d+16r16d16d+12r24d16d+32r32d+16d12r24d+64^d+96r48r64d16d16r16d+16d16
r16d8d+12r24d16d+16d+16d12r24d+32r32d+16d12r24d+16d16
d+16r16d16d+12r24d16d+32r32d+16d12r24d+64^d+96r48r64d16d16r16d+16d16
r16d8d+12r24d16d+16d+16d12r24d+32r32d+16d12r24d+16d16
d+16r16d16d+12r24d16d+32r32d+16d12r24d+64^d+96r48r64d16d16r16d+16d16
r16d8d+12r24d16d+16d+16d12r24d+32r32d+16d12r24d+16d16
d+16r16d16d+12r24d16d+32r32d+16d12r24d+64^d+96r48r64d16d16r16d+16d16
r16d8d+12r24d16d+16d+16d12r24d+32r32d+16d12r24d+16d16
d+16r16d16d+12r24d16d+32r32d+16d12r24d+64^d+96r48r64d16d16r16d+16d16
r16d8d+12r24d16d+16d+16d12r24d+32r32d+16d12r24d+16d16
d+16r16d16d+12r24d16d+32r32d+16d12r24d+64^d+96r48r64d16d16r16d+16d16
r16d8d+12r24d16d+16d+16d12r24d+32r32d+16d12r24d+16d16
d+16r16d16d+12r24d16d+32r32d+16d12r24d+64^d+96r48r64d16d16r16d+16d16
r16d8d+12r24d16d+16d+16d12r24d+32r32d+16d12r24d+16d16
d+16r16d16d+12r24d16d+32r32d+16d12r24d+64^d+96r48r64d16d16r16d+16d16
r16d8d+12r24d16d+16d+16d12r24d+32r32d+16d12r24d+16d16
d+16r16d16d+12r24d16d+32r32d+16d12r24d+64^d+96r48r64d16d16r16d+16d16
r16d8d+12r24d16d+16d+16d12r24d+32r32d+16d12r24d+16d16
d+16r16d16d+12r24d16d+32r32d+16d12r24d+64^d+96r48r64d16d16r16d+16d16
r16d8d+12r24d16d+16d+16d12r24d+32r32d+16d12r24d+16d16
d+16r16d16d+12r24d16d+32r32d+16d12r24d+64^d+96r48r64d16d16r16d+16d16
r16d8d+12r24d16d+16d+16d12r24d+32r32d+16d12r24d+16d16
d+16r16d16d+12r24d16d+32r32d+16d12r24d+64^d+96r48r64d16d16r16d+16d16
r16d8d+12r24d16d+16d+16d12r24d+32r32d+16d12r24d+16d16
d+16r16d16d+12r24d16d+32r32d+16d12r24d+64^d+96r48r64d16d16r16d+16d16
r16d8d+12r24d16d+16d+16d12r24d+32r32d+16d12r24d+16d16
d+16r16d16d+12r24d16d+32r32d+16d12r24d+64^d+96r48r64d16d16r16d+16d16
r16d8d+12r24d16d+16d+16d12r24d+32r32d+16d12r24d+16d16
d+16r16d16d+12r24d16d+32r32d+16d12r24d+64^d+96r48r64d16d16r16d+16d16
r16d8d+12r24d16d+16d+16d12r24d+32r32d+16d12r24d+16d16
d+16r16d16d+12r24d16d+32r32d+16d12r24d+64^d+96r48r64d16d16r16d+16d16
r16d8d+12r24d16d+16d+16d12r24d+32r32d+16d12r24d+16d16
d+16r16d16d+12r24d16d+32r32d+16d12r24d+64^d+96r48r64d16d16r16d+16d16
r16d8d+12r24d16d+16d+16d12r24d+32r32d+16d12r24d+16d16
d+16r16d16d+12r24d16d+32r32d+16d12r24d+64^d+96r48r64d16d16r16d+16d16
r16d8d+12r24d16d+16d+16d12r24d+32r32d+16d12r24d+16d16
d+16r16d16d+12r24d16d+32r32d+16d12r24d+64^d+96r48r64d16d16r16d+16d16
r16d8d+12r24d16d+16d+16d12r24d+32r32d+16d12r24d+16d16
d+16r16d16d+12r24d16d+32r32d+16d12r24d+64^d+96r48r64d16d16r16d+16d16
r16d8d+12r24d16d+16d+16d12r24d+32r32d+16d12r24d+16d16
d+16r16d16d+12r24d16d+32r32d+16d12r24d+64^d+96r48r64d16d16r16d+16d16
r16d8d+12r24d16d+16d+16d12r24d+32r32d+16d12r24d+16d16
d+16r16d16d+12r24d16d+32r32d+16d12r24d+64^d+96r48r64d16d16r16d+16d16
r16d8d+12r24d16d+16d+16d12r24d+32r32d+16d12r24d+16d16
d+16r16d16d+12r24d16d+32r32d+16d12r24d+64^d+96r48r64d16d16r16d+16d16
r16d8d+12r24d16d+16d+16d12r24d+32r32d+16d12r24d+16d16
d+16r16d16d+12r24d16d+32r32d+16d12r24d+64^d+96r48r64d16d16r16d+16d16
r16d8d+12r24d16d+16d+16d12r24d+32r32d+16d12r24d+16d16
d+16r16d16d+12r24d16d+32r32d+16d12r24d+64^d+96r48r64d16d16r16d+16d16
r16d8d+12r24d16d+16d+16d12r24d+32r32d+16d12r24d+16d16
d+16r16d16d+12r24d16d+32r32d+16d12r24d+64^d+96r48r64d16d16r16d+16d16
r16d8d+12r24d16d+16d+16d12r24d+32r32d+16d12r24d+16d16
d+16r16d16d+12r24d16d+32r32d+16d12r24d+64^d+96r48r64d16d16r16d+16d16
r16d8d+12r24d16d+16d+16d12r24d+32r32d+16d12r24d+16d16
d+16r16d16d+12r24d16d+32r32d+16d12r24d+64^d+96r48r64d16d16r16d+16d16
r16d8d+12r24d16d+16d+16d12r24d+32r32d+16d12r24d+16d16
d+16r16d16d+12r24d16d+32r32d+16d12r24d+64^d+96r48r64d16d16r16d+16d16
r16d8d+12r24d16d+16d+16d12r24d+32r32d+16d12r24d+16d16
d+16r16d16d+12r24d16d+32r32d+16d12r24d+64^d+96r48r64d16d16r16d+16d16
r16d8d+12r24d16d+16d+16d12r24d+32r32d+16d12r24d+16d16
d+16r16d16d+12r24d16d+32r32d+16d12r24d+64^d+96r48r64d16d16r16d+16d16
r16d8d+12r24d16d+16d+16d12r24d+32r32d+16d12r24d+16d16
d+16r16d16d+12r24d16d+32r32d+16d12r24d+64^d+96r48r64d16d16r16d+16d16
r16d8d+12r24d16d+16d+16d12r24d+32r32d+16d12r24d+16d16
d+16r16d16d+12r24d16d+32r32d+16d12r24d+64^d+96r48r64d16d16r16d+16d16
r16d8d+12r24d16d+16d+16d12r24d+32r32d+16d12r24d+16d16
d+16r16d16d+12r24d16d+32r32d+16d12r24d+64^d+96r48r64d16d16r16d+16d16
r16d8d+12r24d16d+16d+16d12r24d+32r32d+16d12r24d+16d16
d+16r16d16d+12r24d16d+32r32d+16d12r24d+64^d+96r48r64d16d16r16d+16d16
r16d8d+12r24d16d+16d+16d12r24d+32r32d+16d12r24d+16d16
d+16r16d16d+12r24d16d+32r32d+16d12r24d+64^d+96r48r64d16d16r16d+16d16
r16d8d+12r24d16d+16d+16d12r24d+32r32d+16d12r24d+16d16
d+16r16d16d+12r24d16d+32r32d+16d12r24d+64^d+96r48r64d16d16r16d+16d16
r16d8d+12r24d16d+16d+16d12r24d+32r32d+16d12r24d+16d16
d+16r16d16d+12r24d16d+32r32d+16d12r24d+64^d+96r48r64d16d16r16d+16d16
r4e32r8..e16r8.e48r24d+16r1
r8
;
r1
o5a8g8a8g4r8a8g8
f+8e8f+8e4.r4
>d8c8d8c4r8d8c8
<b8a8b8a4.r8>>c16c16
r1
r1
r1
r1
r1
r1
r1
r1
<<c1
c+1
d4f2r1
r1
r1
r1
r1
r1
r2.
f+8e12r24f+8e12r1
r1
r1
r1
r1
r1
r1
r1
r1
r1
r1
r1
r1
r1
r24
a8g8a8g4.a8g8
f+8e8f+8e4.r4
>d8c8d8c4.d8c8
<b8a8b8a4.r4
a8g8a8g4.a8g8
f+8e8f+8e4.r4
>d8c8d8c4.d8c8
<b8a8b8a8g+8f+8g+8f+8
r1
r1
r1
r1
r1
r1
r1
r1
r1
r1
r1
r1
c+4r8e8r1
r1
r1
r1
r1
r1
r1
r1
r1
r1
r1
r1
r1
r1
<a+2
a1
r1
r1
r1
r1
r2
>>c+16f+8r16c+16f+8r1.
<f+16a2
a+1
>c+2.r1
r1
r1
r1
r1
r4
c+8<b12r24>c+8<b2^b6
r6r24a+12r6b12r6>g16g16r1
r8
;
r1
o6c8<a+12r24>c8<a+3r24>c8<a+8
a8g8a8g4..r8.
>f8d+8f8d+4.f8d+8
d8c8d8c4.r8>c16c16
r1
r1
r1
r1
r1
r1
r1
r1
r1
r1
r1
r1
r1
r1
r1
r1
r1
r1
r1
r1
r1
r1
r1
r1
r1
r1
r1
r1
r1
r1
r1
r1
<c8<a+8>c8<a+3r24>c8<a+8
a8g8a8g4..r8.
>f8d+8f8d+3r24f8d+8
d8c8d8c4..r8.
c8<a+8>c8<a+3r24>c8<a+8
a8g8a8g4..r8.
>f8d+8f8d+3r24f8d+8
d8c8d8c8<b8a8b8a8
r1
r1
r1
r1
r1
r1
r1
r1
r1
r1
r1
r1
r1
r1
r1
r1
r1
r1
r1
r1
r1
r1
r1
r1
r1
r1
r1
r1
r1
r1
r1
r1
r1
r1
r1
r1
r1
r1
r1
r1
r1
r1
>e8d8e8d4.^d3
r6<a+8r8b12r6>g32r32g16r1
r8
;
r1
o5e8d12r24e8d3r24e8d8
c+8<b8>c+8<b4.r4
>a8g8a8g3r24a8g8
f+8e8f+8e3r1
r1
r1
r1
r1
r1
r1
r1
r1
r1
r1
r1
r1
r1
r1
r1
r1
r1
r1
r1
r1
r1
r1
r1
r1
r1
r1
r1
r1
r1
r1
r1
r6
r8
e8d8e8d4r8e8d8
c+8<b8>c+8<b4.r4
>a8g8a8g3r24a8g8
f+8e8f+8e4..r8.
e8d8e8d4r8e8d8
c+8<b8>c+8<b4.r4
>a8g8a8g3r24a8g8
f+8e8f+8e8d+8c+8d+8c+8
r1
r1
r1
r1
r1
r1
r1
r1
r1
r1
r1
r1
r1
r1
r1
r1
r1
r1
r1
r1
r1
r1
r1
r1
r1
r1
r1
r1
r1
r1
r1
r1
r1
r1
r1
r1
r1
r1
r1
r1
r1
r1
g+8f+12r24g+8f+2^f+6
r1...
r12
;
r1
r1
r1
r1
r2..
o6>c32r32c16
r1
r1
r1
r1
r1
r1
r1
r1
r1
r1
r1
r1
r1
r1
r1
r1
r1
r1
r1
r1
r1
r1
r1
r1
r1
r1
r1
r1
r1
r1
r1
r1
r1
r1
r1
r1
r1
r1
r1
r1
r1
r1
r1
r1
r1
r1
r1
r1
r1
r1
r1
r1
r1
r1
r1
r1
r1
r1
r1
r1
r1
r1
r1
r1
r1
r1
r1
r1
r1
r1
r1
r1
r1
r1
r1
r1
r1
r1
r1
r1
r1
r1
r1
r1
r1
;
r1
r1
r1
r1
r1
o4>>d1
<b2.r4
>a2..r8
f+2.r4
>e1
<c+1
g1
b1
>d1
e1
d1
<a2.r4
>a1
e1
<g2.g4
>e1
<<a1
>f+1
b1
>d1
e1
<b1
g1
b1
<a+1
>c+1
a1
e1
e1
>f+1
<g1
>d1
r1
r1
r1
r1
r1
r1
r1
r1
r1
r1
r1
r1
r1
r1
r1
r1
r1
r1
r1
r1
r1
r1
r1
r1
r1
r1
r1
r1
r1
r1
r1
r1
r1
r1
r1
r1
r1
r1
r1
r1
<<f+1
d+1
f+1
d+1
>c+1^c+1^c+1
r1
r1
r1
e8d8e8d2^d6
r1...
r12
;
r1
r1
r1
r1
r1
r16
o3c16>c16<c16a+16c16g16c16d+16e16g16a16g16e16d16c+16
r16a16f+16<b16r16b16r2r8.
f16r16g+16a16>c16d16c16f16<a16>g16g+16a16>c16d16d+16
e16<b16a16b16d16d16r2..
e8g16d16r16d16r2
<b16>c16c+16a16f+16c+16<b16>e16c+4r4.
d16d16c16<f16r16f16r2
r8.
>c16c+16d16r16e16f16f+16r16g16g+16a16
r16d+16d16c16r16<a16r2.
r16
a16b16>c+16r16d16r16d+16e16f16r16a16g+16g16
r16>d+16d16c16d16d16c16<f16r2
r8
a16>c8.d8r4.>c16c16
r4..<<<g8.a16g16>c8d16c16
d16a16f+16d16c+16<b16r4.>g16d+16d16c16
r16<f16r16f+16r16g16r1
r4
>>g16r16a16>c16r16c16
r16<<c16>c16<c16a+16c16g16c16d+16e16g16a16g16e16d16c+16
r16a16f+16<b16r16b16r2r8.
f16r16g+16a16>c16d16c16f16<a16>g16g+16a16>c16d16d+16
e16<b16a16b16d16d16r2..
d+8g16d16r16d16r2
<b16>c16c+16a16f+16c+16<b16>e16c+4r4.
d16d16c16<f16r16f16r2
r8.
>c16c+16d16r16e16f16f+16r16g16g+16a16
r16d+16d16c16r16<a16r1
r1
r2...
>c16c+16d16r16e16f16f+16r16g16g+16a16
r16d+16d16c16r16<a16r1
r1
r1
r1
r1
r1
r1
r1
r1
r1
r1...
e8e8g+8g+8b8b8
>c+2.r2
<a8a8>c+8c+8e8e8
f+1
r8e8<e8e8g+8g+8b8b8
>c+1
r4<a8a8>c+8c+8e8e8
f+1
r1
r1
r1
r1
r1
r1
r1
r1
r1
r1
r1
r1
r2
r16
e16b16e16a+16g+16f+16>c+16
r16<a+16g4r1
r8
f+16b16e16f+16g16e16d+16c+16
c16g+16d+16c+16<f+16f+16r1
r16
b8.>c+16<b16>e8f+16e16
g16a+16f8r4r16a+16g+16>c+16r16<a+16g+16d+3
r1
r6
r16
f+16f+16r16f+16r16f+16r16f+16
r1
r1
r1.
f+16f+16r16f+16r16f+16r16f+16
r1
r1
r1.
f+16f+16r16f+16r16f+16r16f+16
r1
r1
r1
r1
r1
r1
r2
r8
<e4.
r4a8r8>d12r6g16g16r1
r8
;
r1
r1
r1
r1
r1
r1
r1
r1
r1
r1
r1
r1
r1
r1
r1
r1
r1
r1
r1
r1
r1
r1
r1
r1
r1
r1
r1
r1
r1
o6a2.r8g8
r32f+2.^f+192r12e8r64
>d2..c8^c32
<b2..r1
r1
r1
r1
r1
r1
r1
r1
r1
r1
r1
r1
r1
r1
r1
r1
r12
e1
f1
f+2g2
g+2>c+2
f+2^f+6r1
r1
r1
r1
r1
r1
r1
r1
r1
r1
r1
r1
r1
r1
r1
r1
r1
r1
r1
r1
r1
r1
r1
r1
r1
r1
r1
r1
r1
r1
r1
r1
r1...
r12
<<g4..
r8.a+8r8b12r6>g16g16r1
r8
;
r1
r1
r1
r1
r1
r1
r1
r1
r1
r1
r1
r1
r1
r1
r1
r1
r1
r1
r1
r1
r1
r1
r1
r1
r1
r1
r1
r1
r1
r1
r1
r1
r1
r1
r1
r1
r1
r1
r1
r1
r1
r1
r1
r1
r1
r4
o2e16r16e8g+12r24g+8b12r24b8
>c+2...r4
r16
<a12r24a8>c+16r16c+8e12r24e8
f+2..r4
e8<e16e192r24r64e8g+16r16g+12r24b12r24b8
>c+2...r4
r16
<a16r16a8>c+12r24c+12r24e12r24e8
f+2.r1
r1
r1
r1
r1
r1
r1
r1
r1
r1
r1
r1
r1
r1
r1
r1
r1
r1
r1
r1
r1
r1
r1
r1
r1
r1
r1
r1
r1
r1
r1
r1
r1
r1
r1
r1
r1
r4
;
r1
r1
r1
r1
r1
r1
r1
r1
r1
r1
r1
r1
r1
r1
r1
r1
r1
r1
r1
r1
r1
r1
r1
r1
r1
r1
r1
r1
r1
r1
r1
r1
r1
r1
r1
r1
r1
r1
r1
r1
r1
r1
r1
r1
r1
r1
r1
r1
r1
o5b1
f1
a1
g+1
b1
a+1
f+1
>c1
<f+1
g1
b1
>c1
e1
c+1
a1
f+1
<f+1
d+1
b1
a+1
f+1
d+1
f+1
d+1
f+1
d+1
a1
f+1
a1
f+1
f+1
f+1
r1
r1
r1
r1
r1
r1
r1
r1
r1
;
r1
r1
r1
r1
r1
r1
r1
r1
r1
r1
r1
r1
r1
r1
r1
r1
r1
r1
r1
r1
r1
r1
r1
r1
r1
r1
r1
r1
r1
r1
r1
r1
r1
r1
r1
r1
r1
r1
r1
r1
r1
r1
r1
r1
r1
r1
r1
r1
r1
r1
r1
r1
r1
r1
r1
r1
r1
r1
r1
r1
r1
o6c+1
<a+1
>f+1
d+1
r1
r1
r1
r1
r1
r1
r1
r1
r1
r1
r1
r1
r1
r1
r1
r1
r1
r1
r1
r1
r1
r1
r1
r1
r1
