r1 r1 r1 r1 r1.  r16 o8d32r32e32r16.d32r16.e32r16.  g32r16.a32r16.b32r8r32d32r16.d32r32e32r16.d32r16.e32r16.  g32r16.a32r16.b32r8r32d32r16.d32r32e32r16.d32r16.e32r16.  g32r16.a32r16.b32r8r32d32r16.d32r32e32r16.d32r16.e32r16.  g32r16.a32r16.b32r8r32d32r16.d32r32e32r16.d32r16.e32r16.  g32r16.a32r16.b32r8r32d32r16.d32r32e32r16.d32r16.e32r16.  g32r16.a32r16.b32r8r32d32r16.d32r32e32r16.d32r16.e32r16.  g32r16.a32r16.b32r8r32d32r16.d32r32e32r16.d32r16.e32r16.  g32r16.a32r16.b32r8r32d32r16.d32r32e32r16.d32r16.e32r16.  g32r16.a32r16.b32r8r32d32r16.d32r32e32r16.d32r16.e32r16.  g32r16.a32r16.b32r8r32d32r16.d32r32e32r16.d32r16.e32r16.  g32r16.a32r16.b32r8r32d32r16.d32r32e32r16.d32r16.e32r16.  g32r16.a32r16.b32r8r32d32r16.d32r32e32r16.d32r16.e32r16.  g32r16.a32r16.b32r8r32d32r16.d32r32e32r16.d32r16.e32r16.  g32r16.a32r16.b32r8r32d32r16.d32r32e32r16.d32r16.e32r16.  g32r16.a32r16.b32r8r32d32r16.d32r32e32r16.d32r16.e32r16.  g32r16.a32r16.b32r8r32d32r16.d32r32e32r16.d32r16.e32r1 r1 r1 r1 r1 r1 r1 r1 r1 r1 r1 r1 r1 r1 r1 r1 r1 r1 r1 r1 r1 r1 r1 r1 r16.  g32r16.a32r16.b32r8r32d32r16.d32r32e32r16.d32r16.e32r16.  g32r16.a32r16.b32r8r32d32r16.d32r32e32r16.d32r16.e32r16.  g32r16.a32r16.b32r8r32d32r16.d32r32e32r16.d32r16.e32r16.  g32r16.a32r16.b32r8r32d32r16.d32r32e32r16.d32r16.e32r16.  g32r16.a32r16.b32r8r32d32r16.d32r32e32r16.d32r16.e32r16.  g32r16.a32r16.b32r8r32d32r16.d32r32e32r16.d32r16.e32r16.  g32r16.a32r16.b32r8r32d32r16.d32r32e32r16.d32r16.e32r16.  g32r16.a32r16.b32r8r32d32r16.d32r32e32r16.d32r16.e32r16.  g32r16.a32r16.b32r8r32d32r16.d32r32e32r16.d32r16.e32r16.  g32r16.a32r16.b32r8r32d32r16.d32r32e32r16.d32r16.e32r16.  g32r16.a32r16.b32r8r32d32r16.d32r32e32r16.d32r16.e32r16.  g32r16.a32r16.b32r8r32d32r16.d32r32e32r16.d32r16.e32r1 r1 r1 r1 r1 r1 r1 r1 r1 r1 r1 r1 r1 r1 r1 r1 r1 r1 r1 r1 r1 r1 r1 r1 r1 r1 r1.  r8 r32 d32r32e32r16.d32r16.e32r16.  g32r16.a32r16.b32r8r32d32r16.d32r32e32r16.d32r16.e32r16.  g32r16.a32r16.b32r8r32d32r16.d32r32e32r16.d32r16.e32r16.  g32r16.a32r16.b32r8r32d32r16.d32r32e32r16.d32r16.e32r16.  g32r16.a32r16.b32r8r32d32r16.d32r32e32r16.d32r16.e32r16.  g32r16.a32r16.b32r8r32d32r16.d32r32e32r16.d32r16.e32r16.  g32r16.a32r16.b32r8r32d32r16.d32r32e32r16.d32r16.e32r16.  g32r16.a32r16.b32r8r32d32r16.d32r32e32r16.d32r16.e32r16.  g32r16.a32r16.b32r8r32d32r16.d32r32e32r16.d32r16.e32r16.  g32r16.a32r16.b32r8r32d32r16.d32r32e32r16.d32r16.e32r16.  g32r16.a32r16.b32r8r32d32r16.d32r32e32r16.d32r16.e32r16.  g32r16.a32r16.b32r8r32d32r16.d32r32e32r16.d32r16.e32r16.  g32r16.a32r16.b32r8r32d32r16.d32r32e32r16.d32r16.e32r16.  g32r16.a32r16.b32r8r32d32r16.d32r32e32r16.d32r16.e32r16.  g32r16.a32r16.b32r8r32d32r16.d32r32e32r16.d32r16.e32r16.  g32r16.a32r16.b32r8r32d32r16.d32r32e32r16.d32r16.e32r16.  g32r16.a32r16.b32r8r32d32r16.d32r32e32r16.d32r16.e32r1 r1 r1 r1 r1 r1 r1 r1 r1 r1 r1 r1 r1 r1 r1 r1 r16.  <c16r16c16r16c24d24c24>b16r16<c16r16c16r16c24d24c24>b16r16 a16r16a16r16a24b24a24g16r16a16r16a16r16a24b24a24g16r16 f+16r16f+16r16f+24g24f+24e16r16f+16r16f+16r16f+24g24f+24e16r16 d16r16d16r16d24e24d24c16r16d16r16d16r16d24e24d24c16r16 >b4.a8b4.a8 b16r16<d16r16>b24<d24>b24a16r16b16r16<d16r16>b24<d24>b24a16r16 b2r16b16<c+16d16e16f+16g16a16 b16f+16a16r16e16r16f+32g32f+32e32b16e16a16d16e16r16d16e16 r1 r1 r1.  r16 d32r32e32r16.d32r16.e32
r1 r1 r1 r1 r1 r1 r1 r1 r1 r1 o5<g8r4g4.r4 g8r4g4.r4 g8r4g4.r4 g8r4g4.r4 >d3r24d4..r16e16r16 f+3r24f+2^f+8 <g8r4g4.r4 g8r4g4.r4 g8r4g4.r4 g8r4g4.r4 >d3r24d4..r16e16r16 f+3r24f+2^f+6 r1 r1 r1 r1 r1 r1 r1 r1 r1 r1 r1 r1 r1 r1 r1...  r12 <g3r24f+12r24g3r24f+12r24 e3r24d12r24e3r24d12r24 c3r24>b12r24<c3r24>b12r24 a3r24g12r24a3r24g12r24 f+1 a1 e2<c+2 b2a2 g8r4g4.r4 g8r4g4.r4 g8r4g4.r4 g8r4g4.r4 >d3r24d4..r16e16r16 f+3r24f+2^f+8 <g8r4g4.r4 g8r4g4.r4 g8r4g4.r4 g8r4g4.r4 >d3r24d4..r16e16r16 f+3r24f+2^f+8 d2d+2 d2c+2 d2e2 d2c+2 d2...r16 f+2e4c+4 d2...r16 f+2e4c+4 r1 r1 r1 r1 r1 r1 r1 r1 <g3r24f+12r24g3r24f+12r24 e3r24d12r24e3r24d12r24 c3r24>b12r24<c3r24>b12r24 a3r24g12r24a3r24g12r24 f+1 a1 e2<c+2 b2a2 r1 r1 r1 r1 r1 r1 r1 r1 g8r4g4.r4 g8r4g4.r4 g8r4g4.r4 g8r4g4.r4 >d3r24d4..r16e16r16 f+3r24f+2^f+8 <g8r4g4.r4 g8r4g4.r4 g8r4g4.r4 g8r4g4.r4 >d3r24d4..r16e16r16 f+3r24f+2^f+8 d2d+2 d2c+2 d2e2 d2c+2 d2...r16 f+2e4c+4 d2...r16 f+2e4c+4 r1 r1 r1 r1 r1 r1 r1 r1 <g3r24f+12r24g3r24f+12r24 e3r24d12r24e3r24d12r24 c3r24>b12r24<c3r24>b12r24 a3r24g12r24a3r24g12r24 f+1 a1 e2<c+2 b2a2 r2g12r24e12r24d12r24e12r2 r24 >g16r16e16r16d16r16e16r2 r16 <g12r24e12r24d12r24e12r2 r24 >g16r16e16r16d16r16e16
r1 r1 r1 r1 r1 r1 r1 r1 r1 r1 o6d12r24e16d16>b12r24a12r24g12r24e12r24d12r24e12r24 g16a16g16e16d12r24>b12r24a12r24b12r24<d12r24e12r24 d16e16d16>b16a12r24<d16e16d16>b16a12r24<d16e16d16>b16 a12r24a12r24b12r24b12r24<d12r24d12r24e12r24e12r24 g3r24g4..r16a12r24 b3r24b2^b8 <d12r24e16d16>b12r24a12r24g12r24e12r24d12r24e12r24 g16a16g16e16d12r24>b12r24a12r24b12r24<d12r24e12r24 d16e16d16>b16a12r24<d16e16d16>b16a12r24<d16e16d16>b16 a12r24a12r24b12r24b12r24<d12r24d12r24e12r24e12r24 g3r24g4..r16a12r24 b3r24b2^b6 r1 r1 r1 r1 r1 r1 r1 r1 r1 r1 r1 r1 r1 r1 r1...  r12 <<c3r24>b12r24<c3r24>b12r24 a3r24g12r24a3r24g12r24 f+3r24e12r24f+3r24e12r24 d3r24c12r24d3r24c12r1 r1 r1 r1 r24 <d12r24e16d16>b12r24a12r24g12r24e12r24d12r24e12r24 g16a16g16e16d12r24>b12r24a12r24b12r24<d12r24e12r24 d16e16d16>b16a12r24<d16e16d16>b16a12r24<d16e16d16>b16 a12r24a12r24b12r24b12r24<d12r24d12r24e12r24e12r24 g3r24g4..r16a12r24 b3r24b2^b8 <d12r24e16d16>b12r24a12r24g12r24e12r24d12r24e12r24 g16a16g16e16d12r24>b12r24a12r24b12r24<d12r24e12r24 d16e16d16>b16a12r24<d16e16d16>b16a12r24<d16e16d16>b16 a12r24a12r24b12r24b12r24<d12r24d12r24e12r24e12r24 g3r24g4..r16a12r24 b3r24b2^b8 r1 r1 r1 r1 r1 r1 r1 r1 r1 r1 r1 r1 r1 r1 r1 r1 <c3r24>b12r24<c3r24>b12r24 a3r24g12r24a3r24g12r24 f+3r24e12r24f+3r24e12r24 d3r24c12r24d3r24c12r1 r1 r1 r1 r1 r1 r1 r1 r1 r1 r1 r1 r24 d12r24e16d16>b12r24a12r24g12r24e12r24d12r24e12r24 g16a16g16e16d12r24>b12r24a12r24b12r24<d12r24e12r24 d16e16d16>b16a12r24<d16e16d16>b16a12r24<d16e16d16>b16 a12r24a12r24b12r24b12r24<d12r24d12r24e12r24e12r24 g3r24g4..r16a12r24 b3r24b2^b8 <<d12r24e16d16>b12r24a12r24g12r24e12r24d12r24e12r24 g16a16g16e16d12r24>b12r24a12r24b12r24<d12r24e12r24 d16e16d16>b16a12r24<d16e16d16>b16a12r24<d16e16d16>b16 a12r24a12r24b12r24b12r24<d12r24d12r24e12r24e12r24 g3r24g4..r16a12r24 b3r24b2^b8 r1 r1 r1 r1 r1 r1 r1 r1 r1 r1 r1 r1 r1 r1 r1 r1 <c3r24>b12r24<c3r24>b12r24 a3r24g12r24a3r24g12r24 f+3r24e12r24f+3r24e12r24 d3r24c12r24d3r24c12r1 r1 r1 r1 r24 d12r24e16d16>b12r24a12r1.  r24 <<d12r24e16d16>b12r24a12r1.  r24 g16a16g16e16g16a16g16e16g16a16g16e16g16a16g16e16 d16e16d16>b16<d16e16d16>b16<d16e16d16>b16a16b16<d16e16 g16a16g16e16g16a16g16e16g16a16g16e16g16a16g16e16 d16e16d16>b16<d16e16d16>b16<d16e16d16>b16a16b16<d16e16 g16a16g16e16g16a16g16e16g16a16g16e16g16a16g16e16 d16e16d16>b16<d16e16d16>b16<d16e16d16>b16a16b16<d16e16 g16a16g16e16g16a16g16e16g16a16g16e16g16a16g16e16 d16e16d16>b16<d16e16d16>b16<d16e16d16>b16a16b16<d16e16 g16a16g16e16g16a16g16e16d16e16d16>b16<d16e16d16>b16 <g16a16g16e16g16a16g16e16d16e16d16>b16<d16e16d16>b16 <g16a16g16e16g16a16g16e16d16e16d16>b16<d16e16d16>b16 <g16a16g16e16g16a16g16e16d16e16d16>b16<d16e16d16>b16 <g16a16g16e16g16a16g16e16d16e16d16>b16<d16e16d16>b16 <g16a16g16e16g16a16g16e16d16e16d16>b16<d16e16d16>b16 <g16a16g16e16g16a16g16e16d16e16d16>b16<d16e16d16>b16 <g16a16g16e16g16a16g16e16d16e16d16>b16<d16e16d16>b16 <g16a16g16e16g16a16g16e16g16a16g16e16g16a16g16e16 g16a16g16e16g16a16g16e16g16a16g16e16g16a16g16e16 g16a16g16e16g16a16g16e16g16a16g16e16g16a16g16e32.
r1 r1 r1 r1 r1 r1 r1 r1 r1 r1 r1 r1 r1 r1 r1 r1 r1 r1 r1 r1 r1 r1 o7b4.a8b4.a8 f+4.e8f+4.e8 b4.a8b4.a8 f+4.e8f+4.e8 >b4.a8b4.a8 b8<d8>b8a8f+8e8f+8a8 b4.a8b4.a8 b8<d8>b8a8f+8e8f+8a8 r1 r1 r1 r1 r1 r1 r1 r1 r1 r1 r1 r1 b4.a8b4.a8 b8<d8>b8a8b8<d8>b8a8 b2...r16 b4..r16a4..r1 r1 r1 r1 r1 r1 r1 r1 r1 r1 r1 r1 r16 <b4.a8b4.a8 f+4.e8f+4.e8 b4.a8b4.a8 f+4.e8f+4.e8 >b4.a8b4.a8 b8<d8>b8a8f+8e8f+8a8 b4.a8b4.a8 b8<d8>b8a8f+8e8f+8a8 r1 r1 r1 r1 r1 r1 r1 r1 r1 r1 r1 r1 b4.a8b4.a8 b8<d8>b8a8b8<d8>b8a8 b2...r16 b4..r16a4..r1 r1 r1 r1 r1 r1 r1 r1 r1 r1 r1 r1 r1 r1 r1 r1 r1 r1 r1 r1 r16 <b4.a8b4.a8 f+4.e8f+4.e8 b4.a8b4.a8 f+4.e8f+4.e8 >b4.a8b4.a8 b8<d8>b8a8f+8e8f+8a8 b4.a8b4.a8 b8<d8>b8a8f+8e8f+8a8 r1 r1 r1 r1 r1 r1 r1 r1 r1 r1 r1 r1 b4.a8b4.a8 b8<d8>b8a8b8<d8>b8a8 b2...r16 b4..r16a4..r1 r16 d12r24e16d16>b12r24a12r1.  r24 <<d12r24e16d16>b12r24a12r1 r1 r1 r1 r2 r24 <b16<d16>b16a16b16<d16>b16a16b16<d16>b16a16b16<d16>b16a16 g16a16g16e16g16a16g16e16g16a16g16e16d16e16g16a16 b16<d16>b16a16b16<d16>b16a16b16<d16>b16a16b16<d16>b16a16 g16a16g16e16g16a16g16e16g16a16g16e16d16e16g16a16 <d16e16d16>b16g16e16d16e16g16a16g16e16d16e16g16a16 <d16e16d16>b16g16e16d16e16g16a16g16e16d16e16g16a16 <d16e16d16>b16g16e16d16e16g16a16g16e16d16e16g16a16 <d16e16d16>b16g16e16d16e16g16a16g16e16d16e16g16a16 <d16e16d16>b16g16e16d16e16g16a16g16e16d16e16g16a16 <d16e16d16>b16g16e16d16e16g16a16g16e16d16e16g16a16 <d16e16d16>b16g16e16d16e16g16a16g16e16d16e16g16a16 <d16e16d16>b16g16e16d16e16g16a16g16e16d16e16g16a16 <d16e16d16>b16<d16e16d16>b16<d16e16d16>b16<d16e16d16>b16 <d16e16d16>b16<d16e16d16>b16<d16e16d16>b16<d16e16d16>b16 <d16e16d16>b16<d16e16d16>b16<d16e16d16>b16<d16e16d16>b16
r1 r1 r1 r1 r1 r1 r1 r1 r1 r1 r1 r1 r1 r1 r1 r1 r1 r1 r1 r1 r1 r1 r1 r1 r1 r1 r1 r1 r1 r1 o5b32r32<c32r32>b32r32<c32r32>b32r32<c32r32>b32r32<c32r32>b32r32<c32r32>b32r32<c32r32>b32r32<c32r32>b32r32<c32r32 >b32r32<c32r32>b32r32<c32r32>b32r32<c32r32>b32r32<c32r32>b32r32<c32r32>b32r32<c32r32>b32r32<c32r32c+32r32d+32r32 e32r32f32r32e32r32f32r32e32r32f32r32e32r32f32r32e32r32f32r32e32r32f32r32e32r32f32r32e32r32f32r32 e32r32f32r32e32r32f32r32e32r32f32r32e32r32f32r32e32r32f32r32e32r32f32r32c+32r32d32r32e32r32f32r32 f+8r1 r1 r1 r1 r1 r1 r1 r1 r1 r1 r1 r1 r1 r1 r1 r1 r1 r1 r1 r1 r1 r1 r1 r1 r1 r1 r1 r1 r1 r1 r1...  >b32r32<c32r32>b32r32<c32r32>b32r32<c32r32>b32r32<c32r32>b32r32<c32r32>b32r32<c32r32>b32r32<c32r32>b32r32<c32r32 >b32r32<c32r32>b32r32<c32r32>b32r32<c32r32>b32r32<c32r32>b32r32<c32r32>b32r32<c32r32>b32r32<c32r32c+32r32d+32r32 e32r32f32r32e32r32f32r32e32r32f32r32e32r32f32r32e32r32f32r32e32r32f32r32e32r32f32r32e32r32f32r32 e32r32f32r32e32r32f32r32e32r32f32r32e32r32f32r32e32r32f32r32e32r32f32r32c+32r32d32r32e32r32f32r32 f+8r1 r1 r1 r1 r1 r1 r1 r1 r1 r1 r1 r1 r1 r1 r1 r1 r1 r1 r1 r1 r1 r1 r1 r1 r1 r1 r1 r1 r1 r1 r1 r1 r1 r1 r1 r1 r1 r1 r1...  >b32r32<c32r32>b32r32<c32r32>b32r32<c32r32>b32r32<c32r32>b32r32<c32r32>b32r32<c32r32>b32r32<c32r32>b32r32<c32r32 >b32r32<c32r32>b32r32<c32r32>b32r32<c32r32>b32r32<c32r32>b32r32<c32r32>b32r32<c32r32>b32r32<c32r32c+32r32d+32r32 e32r32f32r32e32r32f32r32e32r32f32r32e32r32f32r32e32r32f32r32e32r32f32r32e32r32f32r32e32r32f32r32 e32r32f32r32e32r32f32r32e32r32f32r32e32r32f32r32e32r32f32r32e32r32f32r32c+32r32d32r32e32r32f32r32 f+8r1 r1 r1 r1 r1 r1 r1 r1 r1 r1 r1 r1 r1 r1 r1 r1 r1 r1 r1 r1 r1 r1 r1 r1 r1 r1 r1...  <b16<d16>b16a16g16a16g16e16b16<d16>b16a16g16a16g16e16 b16<d16>b16a16g16a16g16e16b16<d16>b16a16g16a16g16e16 b16<d16>b16a16g16a16g16e16b16<d16>b16a16g16a16g16e16 b16<d16>b16a16g16a16g16e16b16<d16>b16a16g16a16g16e16 b16<d16>b16a16b16<d16>b16a16b16<d16>b16a16b16<d16>b16a16 b16<d16>b16a16b16<d16>b16a16b16<d16>b16a16b16<d16>b16a16 b16<d16>b16a16b16<d16>b16a16b16<d16>b16a16b16<d16>b16a16
r1 r1 r1 r1 r1.  r16 o4d16e16r16d16r16e16r16 g16r16a16r16b16r8d16r16d16e16r16d16r16e16r16 g16r16a16r16b16r8d16r16d16e16r16d16r16e16r16 g16r16a16r16b16r8d16r16d16e16r16d16r16e16r16 g16r16a16r16b16r8d16r16d16e16r16d16r16e16r16 g16r16a16r16b16r8d16r16d16e16r16d16r16e16r16 g16r16a16r16b16r8d16r16d16e16r16d16r16e16r16 g16r16a16r16b16r8d16r16d16e16r16d16r16e16r16 g16r16a16r16b16r8d16r16d16e16r16d16r16e16r16 g16r16a16r16b16r8d16r16d16e16r16d16r16e16r16 g16r16a16r16b16r8d16r16d16e16r16d16r16e16r16 g16r16a16r16b16r8d16r16d16e16r16d16r16e16r16 g16r16a16r16b16r8d16r16d16e16r16d16r16e16r16 g16r16a16r16b16r8d16r16d16e16r16d16r16e16r16 g16r16a16r16b16r8d16r16d16e16r16d16r16e16r16 g16r16a16r16b16r8d16r16d16e16r16d16r16e16r16 g16r16a16r16b16r8d16r16d16e16r16d16r16e16r16 b16r16<c+16r16d16r8>f+16r16f+16g16r16f+16r16a16r16 b16r16<c+16r16d16r8>f+16r16f+16g16r16f+16r16a16r16 b16r16<c+16r16d16r8>f+16r16f+16g16r16f+16r16a16r16 b16r16<c+16r16d16r8>f+16r16f+16g16r16f+16r16a16r16 b16r16<c+16r16d16r8>f+16r16f+16g16r16f+16r16a16r16 <d16r16e16r16f+16r16>e16f+16r16g16a16r16f+16r16a16r16 b16r16<c+16r16d16r8>f+16r16f+16g16r16f+16r16a16r16 <d16r16e16r16f+16r16>e16f+16r16g16a16r16f+16r16a16r16 b16r16<c16r16d+16r8>f+16r16f+16g16r16f+16r16a16r16 b16r16<c16r16d+16r8>b16r16b16<c16r16>b16r16<d16r16 e16r16f16r16g+16r8>b16r16b16<c16r16>b16r16<d16r16 e16r16f16r16g+16r8>b16r16b16<c16r16>b16r16<d16r1 r1 r1 r1 r16 c16r16d16r16e16r8>g16r16g16a16r16g16r16a16r16 <c16r16d16r16e16r8>g16r16g16a16r16g16r16a16r16 <c16r16d16r16e16r8>g16r16g16a16r16g16r16a16r16 <c16r16d16r16e16r8>g16r16g16a16r16g16r16a16r16 b16r16<c+16r16d16r8>f+16r16f+16g16r16f+16r16a16r16 g16r16a16r16b16r8<d16r16d16e16r16d16r16e16r16 c16r16d16r16e16r8c+16r16c+16e16r16c+16r16e16r16 d16r16e16r16f+16r8d16r16d16e16r16d16r16e16r16 >g16r16a16r16b16r8d16r16d16e16r16d16r16e16r16 g16r16a16r16b16r8d16r16d16e16r16d16r16e16r16 g16r16a16r16b16r8d16r16d16e16r16d16r16e16r16 g16r16a16r16b16r8d16r16d16e16r16d16r16e16r16 g16r16a16r16b16r8d16r16d16e16r16d16r16e16r16 g16r16a16r16b16r8d16r16d16e16r16d16r16e16r16 g16r16a16r16b16r8d16r16d16e16r16d16r16e16r16 g16r16a16r16b16r8d16r16d16e16r16d16r16e16r16 g16r16a16r16b16r8d16r16d16e16r16d16r16e16r16 g16r16a16r16b16r8d16r16d16e16r16d16r16e16r16 g16r16a16r16b16r8d16r16d16e16r16d16r16e16r16 g16r16a16r16b16r8d16r16d16e16r16d16r16e16r16 b16r16<c+16r16d16r8>b16r16b16<d+16r16>b16r16<d+16r16 >e16r16f+16r16g16r16e16f+16r16g16a16r16f+16r16a16r16 b16r16<c+16r16d16r8>b16r16b16<d+16r16>b16r16<d+16r16 >e16r16f+16r16g16r16e16f+16r16g16a16r16f+16r16a16r16 b16r16<c+16r16d16r8>f+16r16f+16g16r16f+16r16a16r16 <d16r16e16r16f+16r16>e16f+16r16g16a16r16f+16r16a16r16 b16r16<c+16r16d16r8>f+16r16f+16g16r16f+16r16a16r16 <d16r16e16r16f+16r16>e16f+16r16g16a16r16f+16r16a16r16 b16r16<c16r16d+16r8>f+16r16f+16g16r16f+16r16a16r16 b16r16<c16r16d+16r8>b16r16b16<c16r16>b16r16<d16r16 e16r16f16r16g+16r8>b16r16b16<c16r16>b16r16<d16r16 e16r16f16r16g+16r8>b16r16b16<c16r16>b16r16<d16r1 r1 r1 r1 r16 c16r16d16r16e16r8>g16r16g16a16r16g16r16a16r16 <c16r16d16r16e16r8>g16r16g16a16r16g16r16a16r16 <c16r16d16r16e16r8>g16r16g16a16r16g16r16a16r16 <c16r16d16r16e16r8>g16r16g16a16r16g16r16a16r16 b16r16<c+16r16d16r8>f+16r16f+16g16r16f+16r16a16r16 g16r16a16r16b16r8<d16r16d16e16r16d16r16e16r16 c16r16d16r16e16r8c+16r16c+16e16r16c+16r16e16r16 d16r16e16r16f+16r8d16r16d16e16r16d16r16e16r1 r1 r1 r1 r16 >g16r16a16r16b16r8d16r16d16e16r16d16r16e16r16 g16r16a16r16b16r8d16r16d16e16r16d16r16e16r16 g16r16a16r16b16r8d16r16d16e16r16d16r16e16r16 g16r16a16r16b16r8d16r16d16e16r16d16r16e16r16 g16r16a16r16b16r8d16r16d16e16r16d16r16e16r16 g16r16a16r16b16r8d16r16d16e16r16d16r16e16r16 g16r16a16r16b16r8d16r16d16e16r16d16r16e16r16 g16r16a16r16b16r8d16r16d16e16r16d16r16e16r16 g16r16a16r16b16r8d16r16d16e16r16d16r16e16r16 g16r16a16r16b16r8d16r16d16e16r16d16r16e16r16 g16r16a16r16b16r8d16r16d16e16r16d16r16e16r16 g16r16a16r16b16r8d16r16d16e16r16d16r16e16r16 g16r16a16r16b16r8d16r16d16e16r16d16r16e16r16 g16r16a16r16b16r8d16r16d16e16r16d16r16e16r16 g16r16a16r16b16r8d16r16d16e16r16d16r16e16r16 g16r16a16r16b16r8d16r16d16e16r16d16r16e16r16 b16r16<c+16r16d16r8>b16r16b16<d+16r16>b16r16<d+16r16 >e16r16f+16r16g16r16e16f+16r16g16a16r16f+16r16a16r16 b16r16<c+16r16d16r8>b16r16b16<d+16r16>b16r16<d+16r16 >e16r16f+16r16g16r16e16f+16r16g16a16r16f+16r16a16r16 b16r16<c+16r16d16r8>f+16r16f+16g16r16f+16r16a16r16 <d16r16e16r16f+16r8>d16r16e16f16r16f+16r16a16r16 b16r16<c+16r16d16r8>f+16r16f+16g16r16f+16r16a16r16 <d16r16e16r16f+16r8>d16r16e16f16r16f+16r16a16r16 b16r16<c16r16d+16r8>f+16r16f+16g16r16f+16r16a16r16 b16r16<c16r16d+16r8>b16r16b16<c16r16>b16r16<d16r16 e16r16f16r16g+16r8>b16r16b16<c16r16>b16r16<d16r16 e16r16f16r16g+16r8>b16r16b16<c16r16>b16r16<d16r1 r1 r1 r1 r16 c16r16d16r16e16r8>g16r16g16a16r16g16r16a16r16 <c16r16d16r16e16r8>g16r16g16a16r16g16r16a16r16 <c16r16d16r16e16r8>g16r16g16a16r16g16r16a16r16 <c16r16d16r16e16r8>g16r16g16a16r16g16r16a16r16 b16r16<c+16r16d16r8>f+16r16f+16g16r16f+16r16a16r16 g16r16a16r16b16r8<d16r16d16e16r16d16r16e16r16 c16r16d16r16e16r8c+16r16c+16e16r16c+16r16e16r16 d16r16e16r16f+16r8d16r16d16e16r16d16r16e16r1 r1 r1.  r8 >d16e16r16d16r16e16r16 g16r16a16r16b16r8d16r16d16e16r16d16r16e16r16 g16r16a16r16b16r8d16r16d16e16r16d16r16e16r16 g16r16a16r16b16r8d16r16d16e16r16d16r16e16r16 g16r16a16r16b16r8d16r16d16e16r16d16r16e16r16 g16r16a16r16b16r8d16r16d16e16r16d16r16e16r16 g16r16a16r16b16r8d16r16d16e16r16d16r16e16r16 g16r16a16r16b16r8d16r16d16e16r16d16r16e16r16 g16r16a16r16b16r8d16r16d16e16r16d16r16e16r16 g16r16a16r16b16r8d16r16d16e16r16d16r16e16r16 g16r16a16r16b16r8d16r16d16e16r16d16r16e16r16 g16r16a16r16b16r8d16r16d16e16r16d16r16e16r16 g16r16a16r16b16r8d16r16d16e16r16d16r16e16r16 g16r16a16r16b16r8d16r16d16e16r16d16r16e16r16 g16r16a16r16b16r8d16r16d16e16r16d16r16e16r16 g16r16a16r16b16r8d16r16d16e16r16d16r16e16r16 g16r16a16r16b16r8d16r16d16e16r16d16r16e16r16 g16r16a16r16b16r8d16r16d16e16r16d16r16e16r16 g16r16a16r16b16r8d16r16d16e16r16d16r16e16r16 g16r16a16r16b16r8d16r16d16e16r16d16r16e24 ; r1 r1 o3f+16r16<<g+16a16>>e16<<a16g16g16>>f+16r16<<g+16a16>>e16<<a16g16g16 >>f+16r16<<g+16a16>>e16<<a16g16g16>>f+16r16<<g+16a16>>e16<<a16g16g16 >>f+16r16<<g+16a16>>e16<<a16g16g16>>f+16r16<<g+16a16>>e16<<a16g16g16 >>f+16r16<<g+16a16>>e16<<a16g16g16>>f+16r16<<g+16a16>>e16<<a16g16g16 >>f+16r16<<g+16a16>>e16<<a16g16g16>>f+16r16<<g+16a16>>e16<<a16g16g16 >>f+16r16<<g+16a16>>e16<<a16g16g16>>f+16r16<<g+16a16>>e16<<a16g16g16 >>f+16r16<<g+16a16>>e16<<a16g16g16>>f+16r16<<g+16a16>>e16<<a16g16g16 >>f+16r16<<g+16a16>>e16<<a16g16g16>>f+16r16<<g+16a16>>e16<<a16g16g16 >>f+16r16<<g+16a16>>e16<<a16g16g16>>f+16r16<<g+16a16>>e16<<a16g16g16 >>f+16r16<<g+16a16>>e16<<a16g16g16>>f+16r16<<g+16a16>>e16<<a16g16g16 >>f+16r16<<g+16a16>>e16<<a16g16g16>>f+16r16<<g+16a16>>e16<<a16g16g16 >>f+16r16<<g+16a16>>e16<<a16g16g16>>f+16r16<<g+16a16>>e16<<a16g16g16 >>f+16r16<<g+16a16>>e16<<a16g16g16>>f+16r16<<g+16a16>>e16<<a16g16g16 >>f+16r16<<g+16a16>>e16<<a16g16g16>>f+16r16<<g+16a16>>e16<<a16g16g16 >>f+16r16<<g+16a16>>e16<<a16g16g16>>f+16r16<<g+16a16>>e16<<a16g16g16 >>f+16r16<<g+16a16>>e16<<a16g16g16>>f+16r16<<g+16a16>>e16<<a16g16g16 >>f+16r16<<g+16a16>>e16<<a16g16g16>>f+16r16<<g+16a16>>e16<<a16g16g16 >>f+16r16<<g+16a16>>e16<<a16g16g16>>f+16r16<<g+16a16>>e16<<a16g16g16 >>f+16r16<<g+16a16>>e16<<a16g16g16>>f+16r16<<g+16a16>>e16<<a16g16g16 >>f+16r16<<g+16a16>>e16<<a16g16g16>>f+16r16<<g+16a16>>e16<<a16g16g16 >>f+16r16<<g+16a16>>e16<<a16g16g16>>f+16r16<<g+16a16>>e16<<a16g16g16 >>f+16r16<<g+16a16>>e16<<a16g16g16>>f+16r16<<g+16a16>>e16<<a16g16g16 >>f+16r16<<g+16a16>>e16<<a16g16g16>>f+16r16<<g+16a16>>e16<<a16g16g16 >>f+16r16<<g+16a16>>e16<<a16g16g16>>f+16r16<<g+16a16>>e16<<a16g16g16 >>f+16r16<<g+16a16>>e16<<a16g16g16>>f+16r16<<g+16a16>>e16<<a16g16g16 >>f+16r16<<g+16a16>>e16<<a16g16g16>>f+16r16<<g+16a16>>e16<<a16g16g16 >>f+16r16<<g+16a16>>e16<<a16g16g16>>f+16r16<<g+16a16>>e16<<a16g16g16 >>f+16r16<<g+16a16>>e16<<a16g16g16>>f+16r16<<g+16a16>>e16<<a16g16g16 >>f+16r16<<g+16a16>>e16<<a16g16g16>>f+16r16<<g+16a16>>e16<<a16g16g16 >>f+16r16<<g+16a16>>e16<<a16g16g16>>f+16r16<<g+16a16>>e16<<a16g16g16 >>f+16r16<<g+16a16>>e16<<a16g16g16>>f+16r16<<g+16a16>>e16<<a16g16g16 >>f+16r16<<g+16a16>>e16<<a16g16g16>>f+16r16<<g+16a16>>e16<<a16g16g16 >>f+16r16<<g+16a16>>e16<<a16g16g16>>f+16r16<<g+16a16>>e16<<a16g16g16 >>f+16r16<<g+16a16>>e16<<a16g16g16>>f+16r16<<g+16a16>>e16<<a16g16g16 >>f+16r16<<g+16a16>>e16<<a16g16g16>>f+16r16<<g+16a16>>e16<<a16g16g16 >>f+16r16<<g+16a16>>e16<<a16g16g16>>f+16r16<<g+16a16>>e16<<a16g16g16 >>f+16r16<<g+16a16>>e16<<a16g16g16>>f+16r16<<g+16a16>>e16<<a16g16g16 >>f+16r16<<g+16a16>>e16<<a16g16g16>>f+16r16<<g+16a16>>e16<<a16g16g16 >>f+16r16<<g+16a16>>e16<<a16g16g16>>f+16r16<<g+16a16>>e16<<a16g16g16 >>f+16r16<<g+16a16>>e16<<a16g16g16>>f+16r16<<g+16a16>>e16<<a16g16g16 >>f+16r16<<g+16a16>>e16<<a16g16g16>>f+16r16<<g+16a16>>e16<<a16g16g16 >>f+16r16<<g+16a16>>e16<<a16g16g16>>f+16r16<<g+16a16>>e16<<a16g16g16 >>f+16r16<<g+16a16>>e16<<a16g16g16>>f+16r16<<g+16a16>>e16<<a16g16g16 >>f+16r16<<g+16a16>>e16<<a16g16g16>>f+16r16<<g+16a16>>e16<<a16g16g16 >>f+16r16<<g+16a16>>e16<<a16g16g16>>f+16r16<<g+16a16>>e16<<a16g16g16 >>f+16r16<<g+16a16>>e16<<a16g16g16>>f+16r16<<g+16a16>>e16<<a16g16g16 >>f+16r16<<g+16a16>>e16<<a16g16g16>>f+16r16<<g+16a16>>e16<<a16g16g16 >>f+16r16<<g+16a16>>e16<<a16g16g16>>f+16r16<<g+16a16>>e16<<a16g16g16 >>f+16r16<<g+16a16>>e16<<a16g16g16>>f+16r16<<g+16a16>>e16<<a16g16g16 >>f+16r16<<g+16a16>>e16<<a16g16g16>>f+16r16<<g+16a16>>e16<<a16g16g16 >>f+16r16<<g+16a16>>e16<<a16g16g16>>f+16r16<<g+16a16>>e16<<a16g16g16 >>f+16r16<<g+16a16>>e16<<a16g16g16>>f+16r16<<g+16a16>>e16<<a16g16g16 >>f+16r16<<g+16a16>>e16<<a16g16g16>>f+16r16<<g+16a16>>e16<<a16g16g16 >>f+16r16<<g+16a16>>e16<<a16g16g16>>f+16r16<<g+16a16>>e16<<a16g16g16 >>f+16r16<<g+16a16>>e16<<a16g16g16>>f+16r16<<g+16a16>>e16<<a16g16g16 >>f+16r16<<g+16a16>>e16<<a16g16g16>>f+16r16<<g+16a16>>e16<<a16g16g16 >>f+16r16<<g+16a16>>e16<<a16g16g16>>f+16r16<<g+16a16>>e16<<a16g16g16 >>f+16r16<<g+16a16>>e16<<a16g16g16>>f+16r16<<g+16a16>>e16<<a16g16g16 >>f+16r16<<g+16a16>>e16<<a16g16g16>>f+16r16<<g+16a16>>e16<<a16g16g16 >>f+16r16<<g+16a16>>e16<<a16g16g16>>f+16r16<<g+16a16>>e16<<a16g16g16 >>f+16r16<<g+16a16>>e16<<a16g16g16>>f+16r16<<g+16a16>>e16<<a16g16g16 >>f+16r16<<g+16a16>>e16<<a16g16g16>>f+16r16<<g+16a16>>e16<<a16g16g16 >>f+16r16<<g+16a16>>e16<<a16g16g16>>f+16r16<<g+16a16>>e16<<a16g16g16 >>f+16r16<<g+16a16>>e16<<a16g16g16>>f+16r16<<g+16a16>>e16<<a16g16g16 >>f+16r16<<g+16a16>>e16<<a16g16g16>>f+16r16<<g+16a16>>e16<<a16g16g16 >>f+16r16<<g+16a16>>e16<<a16g16g16>>f+16r16<<g+16a16>>e16<<a16g16g16 >>f+16r16<<g+16a16>>e16<<a16g16g16>>f+16r16<<g+16a16>>e16<<a16g16g16 >>f+16r16<<g+16a16>>e16<<a16g16g16>>f+16r16<<g+16a16>>e16<<a16g16g16 >>f+16r16<<g+16a16>>e16<<a16g16g16>>f+16r16<<g+16a16>>e16<<a16g16g16 >>f+16r16<<g+16a16>>e16<<a16g16g16>>f+16r16<<g+16a16>>e16<<a16g16g16 >>f+16r16<<g+16a16>>e16<<a16g16g16>>f+16r16<<g+16a16>>e16<<a16g16g16 >>f+16r16<<g+16a16>>e16<<a16g16g16>>f+16r16<<g+16a16>>e16<<a16g16g16 >>f+16r16<<g+16a16>>e16<<a16g16g16>>f+16r16<<g+16a16>>e16<<a16g16g16 >>f+16r16<<g+16a16>>e16<<a16g16g16>>f+16r16<<g+16a16>>e16<<a16g16g16 >>f+16r16<<g+16a16>>e16<<a16g16g16>>f+16r16<<g+16a16>>e16<<a16g16g16 >>f+16r16<<g+16a16>>e16<<a16g16g16>>f+16r16<<g+16a16>>e16<<a16g16g16 >>f+16r16<<g+16a16>>e16<<a16g16g16>>f+16r16<<g+16a16>>e16<<a16g16g16 >>f+16r16<<g+16a16>>e16<<a16g16g16>>f+16r16<<g+16a16>>e16<<a16g16g16 >>f+16r16<<g+16a16>>e16<<a16g16g16>>f+16r16<<g+16a16>>e16<<a16g16g16 >>f+16r16<<g+16a16>>e16<<a16g16g16>>f+16r16<<g+16a16>>e16<<a16g16g16 >>f+16r16<<g+16a16>>e16<<a16g16g16>>f+16r16<<g+16a16>>e16<<a16g16g16 >>f+16r16<<g+16a16>>e16<<a16g16g16>>f+16r16<<g+16a16>>e16<<a16g16g16 >>f+16r16<<g+16a16>>e16<<a16g16g16>>f+16r16<<g+16a16>>e16<<a16g16g16 >>f+16r16<<g+16a16>>e16<<a16g16g16>>f+16r16<<g+16a16>>e16<<a16g16g16 >>f+16r16<<g+16a16>>e16<<a16g16g16>>f+16r16<<g+16a16>>e16<<a16g16g16 >>f+16r16<<g+16a16>>e16<<a16g16g16>>f+16r16<<g+16a16>>e16<<a16g16g16 >>f+16r16<<g+16a16>>e16<<a16g16g16>>f+16r16<<g+16a16>>e16<<a16g16g16 >>f+16r16<<g+16a16>>e16<<a16g16g16>>f+16r16<<g+16a16>>e16<<a16g16g16 >>f+16r16<<g+16a16>>e16<<a16g16g16>>f+16r16<<g+16a16>>e16<<a16g16g16 >>f+16r16<<g+16a16>>e16<<a16g16g16>>f+16r16<<g+16a16>>e16<<a16g16g16 >>f+16r16<<g+16a16>>e16<<a16g16g16>>f+16r16<<g+16a16>>e16<<a16g16g16 >>f+16r16<<g+16a16>>e16<<a16g16g16>>f+16r16<<g+16a16>>e16<<a16g16g16 >>f+16r16<<g+16a16>>e16<<a16g16g16>>f+16r16<<g+16a16>>e16<<a16g16g16 >>f+16r16<<g+16a16>>e16<<a16g16g16>>f+16r16<<g+16a16>>e16<<a16g16g16 >>f+16r16<<g+16a16>>e16<<a16g16g16>>f+16r16<<g+16a16>>e16<<a16g16g16 >>f+16r16<<g+16a16>>e16<<a16g16g16>>f+16r16<<g+16a16>>e16<<a16g16g16 >>f+16r16<<g+16a16>>e16<<a16g16g16>>f+16r16<<g+16a16>>e16<<a16g16g16 >>f+16r16<<g+16a16>>e16<<a16g16g16>>f+16r16<<g+16a16>>e16<<a16g16g16 >>f+16r16<<g+16a16>>e16<<a16g16g16>>f+16r16<<g+16a16>>e16<<a16g16g16 >>f+16r16<<g+16a16>>e16<<a16g16g16>>f+16r16<<g+16a16>>e16<<a16g16g16 >>f+16r16<<g+16a16>>e16<<a16g16g16>>f+16r16<<g+16a16>>e16<<a16g16g16 >>f+16r16<<g+16a16>>e16<<a16g16g16>>f+16r16<<g+16a16>>e16<<a16g16g16 >>f+16r16<<g+16a16>>e16<<a16g16g16>>f+16r16<<g+16a16>>e16<<a16g16g16 >>f+16r16<<g+16a16>>e16<<a16g16g16>>f+16r16<<g+16a16>>e16<<a16g16g16 >>f+16r16<<g+16a16>>e16<<a16g16g16>>f+16r16<<g+16a16>>e16<<a16g16g16 >>f+16r16<<g+16a16>>e16<<a16g16g16>>f+16r16<<g+16a16>>e16<<a16g16g16 >>f+16r16<<g+16a16>>e16<<a16g16g16>>f+16r16<<g+16a16>>e16<<a16g16g16 >>f+16r16<<g+16a16>>e16<<a16g16g16>>f+16r16<<g+16a16>>e16<<a16g16g16 >>f+16r16<<g+16a16>>e16<<a16g16g16>>f+16r16<<g+16a16>>e16<<a16g16g16 >>f+16r16<<g+16a16>>e16<<a16g16g16>>f+16r16<<g+16a16>>e16<<a16g16g16 >>f+16r16<<g+16a16>>e16<<a16g16g16>>f+16r16<<g+16a16>>e16<<a16g16g16 >>f+16r16<<g+16a16>>e16<<a16g16g16>>f+16r16<<g+16a16>>e16<<a16g16g16 >>f+16r16<<g+16a16r16a16g16g16>>f+16r16<<g+16a16r16a16g16g16 >>f+16r16<<g+16a16r16a16g16g16>>f+16r16<<g+16a16r16a16g16g16 >>f+16r16<<g+16a16r16a16g16g16>>f+16r16<<g+16a16r16a16g16g16 >>f+16r16<<g+16a16r16a16g16g16>>f+16r16<<g+16a16r16a16g16g16 >>f+16r16<<g+16a16>>e16<<a16g16g16>>f+16r16<<g+16a16>>e16<<a16g16g16 >>f+16r16<<g+16a16>>e16<<a16g16g16>>f+16r16<<g+16a16>>e16<<a16g16g16 >>f+16r16<<g+16a16>>e16<<a16g16g16>>f+16r16<<g+16a16>>e16<<a16g16g16 >>f+16r16<<g+16a16>>e16<<a16g16g16>>f+16r16<<g+16a16>>e16<<a16g16g16 >>f+16r16<<g+16a16>>e16<<a16g16g16>>f+16r16<<g+16a16>>e16<<a16g16g16 >>f+16r16<<g+16a16>>e16<<a16g16g16>>f+16r16<<g+16a16>>e16<<a16g16g16 >>f+16r16<<g+16a16>>e16<<a16g16g16>>f+16r16<<g+16a16>>e16<<a16g16g16 >>f+16r16<<g+16a16>>e16<<a16g16g16>>f+16r16<<g+16a16>>e16<<a16g16g16 >>f+16r16<<g+16a16>>e16<<a16g16g16>>f+16r16<<g+16a16>>e16<<a16g16g16 >>f+16r16<<g+16a16>>e16<<a16g16g16>>f+16r16<<g+16a16>>e16<<a16g16g16 >>f+16r16<<g+16a16>>e16<<a16g16g16>>f+16r16<<g+16a16>>e16<<a16g16g16 >>f+16r16<<g+16a16>>e16<<a16g16g16>>f+16r16<<g+16a16>>e16<<a16g16g16 >>f+16r16<<g+16a16>>e16<<a16g16g16>>f+16r16<<g+16a16>>e16<<a16g16g16 >>f+16r16<<g+16a16>>e16<<a16g16g16>>f+16r16<<g+16a16>>e16<<a16g16g16 >>f+16r16<<g+16a16>>e16<<a16g16g16>>f+16r16<<g+16a16>>e16<<a16g16g16 >>f+16r16<<g+16a16>>e16<<a16g16g16>>f+16r16<<g+16a16>>e16<<a16g16g16 >>f+16r16<<g+16a16>>e16<<a16g16g16>>f+16r16<<g+16a16>>e16<<a16g16g16 >>f+16r16<<g+16a16>>e16<<a16g16g16>>f+16r16<<g+16a16>>e16<<a16g16g16 >>f+16r16<<g+16a16>>e16<<a16g16g16>>f+16r16<<g+16a16>>e16<<a16g16g16 >>f+16r16<<g+16a16>>e16<<a16g16g16>>f+16r16<<g+16a16>>e16<<a16g16g16 >>f+16r16<<g+16a16>>e16<<a16g16g16>>f+16r16<<g+16a16>>e16<<a16g16g16 >>f+16r16<<g+16a16>>e16<<a16g16g16>>f+16r16<<g+16a16>>e16<<a16g16g16 >>f+16r16<<g+16a16>>e16<<a16g16g16>>f+16r16<<g+16a16>>e16<<a16g16g16 >>f+16r16<<g+16a16>>e16<<a16g16g16>>f+16r16<<g+16a16>>e16<<a16g16g16 >>f+16r16<<g+16a16>>e16<<a16g16g16>>f+16r16<<g+16a16>>e16<<a16g16g16 >>f+16r16<<g+16a16>>e16<<a16g16g16>>f+16r16<<g+16a16>>e16<<a16g16g16 >>f+16r16<<g+16a16>>e16<<a16g16g16>>f+16r16<<g+16a16>>e16<<a16g16g16 >>f+16r16<<g+16a16>>e16<<a16g16g16>>f+16r16<<g+16a16>>e16<<a16g16g16 >>f+16r16<<g+16a16>>e16<<a16g16g16>>f+16r16<<g+16a16>>e16<<a16g16g16 >>f+16r16<<g+16a16>>e16<<a16g16g16>>f+16r16<<g+16a16>>e16<<a16g16g16 >>f+16r16<<g+16a16>>e16<<a16g16g16>>f+16r16<<g+16a16>>e16<<a16g16g16
